<?xml version="1.0" encoding="UTF-8" standalone="no"?>
<svg width="16px" height="16px" viewBox="0 0 16 16" version="1.1" xmlns="http://www.w3.org/2000/svg" xmlns:xlink="http://www.w3.org/1999/xlink">
    <!-- Generator: Sketch 3.8.3 (29802) - http://www.bohemiancoding.com/sketch -->
    <title>add_icon</title>
    <desc>Created with Sketch.</desc>
    <defs></defs>
    <g id="Page-1" stroke="none" stroke-width="1" fill="none" fill-rule="evenodd">
        <g id="02" transform="translate(-845.000000, -504.000000)" fill="#FFFFFF">
            <g id="Group" transform="translate(565.000000, 488.000000)">
                <path d="M286.933333,22.9333333 L281.07465,22.9333333 C280.478848,22.9333333 280,23.4108963 280,24 C280,24.5932109 280.481137,25.0666667 281.07465,25.0666667 L286.933333,25.0666667 L286.933333,30.9253504 C286.933333,31.5211518 287.410896,32 288,32 C288.593211,32 289.066667,31.518863 289.066667,30.9253504 L289.066667,25.0666667 L294.92535,25.0666667 C295.521152,25.0666667 296,24.5891037 296,24 C296,23.4067891 295.518863,22.9333333 294.92535,22.9333333 L289.066667,22.9333333 L289.066667,17.0746496 C289.066667,16.4788482 288.589104,16 288,16 C287.406789,16 286.933333,16.481137 286.933333,17.0746496 L286.933333,22.9333333 Z" id="add_icon"></path>
            </g>
        </g>
    </g>
</svg>