<?xml version="1.0" encoding="UTF-8" standalone="no"?>
<svg width="13px" height="11px" viewBox="0 0 13 11" version="1.1" xmlns="http://www.w3.org/2000/svg" xmlns:xlink="http://www.w3.org/1999/xlink">
    <!-- Generator: Sketch 3.8.3 (29802) - http://www.bohemiancoding.com/sketch -->
    <title>arrow_process</title>
    <desc>Created with Sketch.</desc>
    <defs></defs>
    <g id="Symbols" stroke="none" stroke-width="1" fill="none" fill-rule="evenodd">
        <g id="HEADER_01-Copy" transform="translate(-1105.000000, -45.000000)" fill="#B9B9B9">
            <path d="M1117.92857,50.4703211 C1117.92857,50.8534665 1117.61892,51.2015324 1117.61892,51.2015324 L1114.10282,54.7937478 C1113.76564,55.1349431 1113.22052,55.1365051 1112.87998,54.7919076 C1112.5418,54.449696 1112.54152,53.8951454 1112.87816,53.55449 L1115.06003,51.3466088 L1105.93376,51.3466088 C1105.45751,51.3466088 1105.07143,50.9576556 1105.07143,50.4703212 C1105.07143,49.9863609 1105.46018,49.5940336 1105.93376,49.5940336 L1115.00138,49.5940336 L1112.87816,47.44551 C1112.54152,47.1048546 1112.5418,46.550304 1112.87998,46.2080924 C1113.22052,45.8634949 1113.76564,45.8650569 1114.10282,46.2062522 L1117.57409,49.6806726 C1117.57409,49.6806726 1117.92857,50.0871756 1117.92857,50.4703211 Z" id="arrow_process"></path>
        </g>
    </g>
</svg>