<?xml version="1.0" encoding="UTF-8" standalone="no"?>
<svg width="12px" height="10px" viewBox="0 0 12 10" version="1.1" xmlns="http://www.w3.org/2000/svg" xmlns:xlink="http://www.w3.org/1999/xlink">
    <!-- Generator: Sketch 3.8.3 (29802) - http://www.bohemiancoding.com/sketch -->
    <title>back_arrow</title>
    <desc>Created with Sketch.</desc>
    <defs></defs>
    <g id="Page-1" stroke="none" stroke-width="1" fill="none" fill-rule="evenodd">
        <g id="03" transform="translate(-442.000000, -712.000000)" fill="#909090">
            <path d="M442.285714,716.972604 C442.285714,717.326277 442.560956,717.647568 442.560956,717.647568 L445.686382,720.96346 C445.986095,721.278409 446.470653,721.279851 446.773353,720.961761 C447.073959,720.645873 447.074208,720.13398 446.77497,719.819529 L444.835525,717.781485 L452.947765,717.781485 C453.371102,717.781485 453.714286,717.422451 453.714286,716.972604 C453.714286,716.525872 453.36873,716.163723 452.947765,716.163723 L444.887666,716.163723 L446.77497,714.180471 C447.074208,713.86602 447.073959,713.354127 446.773353,713.038239 C446.470653,712.720149 445.986095,712.721591 445.686382,713.03654 L442.600813,716.243698 C442.600813,716.243698 442.285714,716.618931 442.285714,716.972604 Z" id="back_arrow"></path>
        </g>
    </g>
</svg>