<?xml version="1.0" encoding="UTF-8" standalone="no"?>
<svg width="14px" height="14px" viewBox="0 0 14 14" version="1.1" xmlns="http://www.w3.org/2000/svg" xmlns:xlink="http://www.w3.org/1999/xlink">
    <!-- Generator: Sketch 3.8.3 (29802) - http://www.bohemiancoding.com/sketch -->
    <title>cancel_icon</title>
    <desc>Created with Sketch.</desc>
    <defs></defs>
    <g id="Symbols" stroke="none" stroke-width="1" fill="none" fill-rule="evenodd">
        <g id="HEADER_01-Copy" transform="translate(-1254.000000, -40.000000)" fill="#FFFFFF">
            <g id="HEADER_01">
                <path d="M1261.19617,45.5157292 L1256.58125,40.9008136 C1256.11194,40.4314978 1255.35857,40.4304854 1254.89453,40.8945255 C1254.42725,41.3618007 1254.4333,42.1137384 1254.90081,42.5812514 L1259.51573,47.1961669 L1254.90081,51.8110825 C1254.4315,52.2803983 1254.43049,53.0337683 1254.89453,53.4978084 C1255.3618,53.9650836 1256.11374,53.9590331 1256.58125,53.4915202 L1261.19617,48.8766046 L1265.81108,53.4915202 C1266.2804,53.960836 1267.03377,53.9618484 1267.49781,53.4978084 C1267.96508,53.0305331 1267.95903,52.2785954 1267.49152,51.8110825 L1262.8766,47.1961669 L1267.49152,42.5812514 C1267.96084,42.1119356 1267.96185,41.3585655 1267.49781,40.8945255 C1267.03053,40.4272502 1266.2786,40.4333007 1265.81108,40.9008136 L1261.19617,45.5157292 Z" id="cancel_icon"></path>
            </g>
        </g>
    </g>
</svg>