<?xml version="1.0" encoding="UTF-8" standalone="no"?>
<svg width="7px" height="7px" viewBox="0 0 7 7" version="1.1" xmlns="http://www.w3.org/2000/svg" xmlns:xlink="http://www.w3.org/1999/xlink">
    <!-- Generator: Sketch 3.8.3 (29802) - http://www.bohemiancoding.com/sketch -->
    <title>cancel_small</title>
    <desc>Created with Sketch.</desc>
    <defs></defs>
    <g id="Page-1" stroke="none" stroke-width="1" fill="none" fill-rule="evenodd">
        <g id="02" transform="translate(-668.000000, -551.000000)" fill="#5B6C72">
            <path d="M671.5,553.615814 L669.0615,551.177314 C668.817708,550.933522 668.428463,550.940141 668.184302,551.184302 C667.938439,551.430166 667.937012,551.821198 668.177314,552.0615 L670.615814,554.5 L668.177314,556.9385 C667.933522,557.182292 667.940141,557.571537 668.184302,557.815698 C668.430166,558.061561 668.821198,558.062988 669.0615,557.822686 L671.5,555.384186 L673.9385,557.822686 C674.182292,558.066478 674.571537,558.059859 674.815698,557.815698 C675.061561,557.569834 675.062988,557.178802 674.822686,556.9385 L672.384186,554.5 L674.822686,552.0615 C675.066478,551.817708 675.059859,551.428463 674.815698,551.184302 C674.569834,550.938439 674.178802,550.937012 673.9385,551.177314 L671.5,553.615814 Z" id="cancel_small"></path>
        </g>
    </g>
</svg>