<?xml version="1.0" encoding="UTF-8" standalone="no"?>
<svg width="18px" height="12px" viewBox="0 0 18 12" version="1.1" xmlns="http://www.w3.org/2000/svg" xmlns:xlink="http://www.w3.org/1999/xlink">
    <!-- Generator: Sketch 3.8.3 (29802) - http://www.bohemiancoding.com/sketch -->
    <title>next_icon</title>
    <desc>Created with Sketch.</desc>
    <defs></defs>
    <g id="Page-1" stroke="none" stroke-width="1" fill="none" fill-rule="evenodd">
        <g id="02" transform="translate(-747.000000, -757.000000)" fill="#FFFFFF">
            <g id="Group-5" transform="translate(656.000000, 738.000000)">
                <path d="M108.571429,24.9634721 C108.571429,25.4350357 108.158565,25.8634245 108.158565,25.8634245 L103.470426,30.2846127 C103.020858,30.7045454 102.294021,30.7064678 101.83997,30.2823478 C101.389062,29.8611643 101.388688,29.1786405 101.837545,28.7593723 L104.746712,26.0419801 L92.5783532,26.0419801 C91.9433463,26.0419801 91.4285714,25.5632684 91.4285714,24.9634722 C91.4285714,24.3678288 91.9469043,23.8849644 92.5783532,23.8849644 L104.668501,23.8849644 L101.837545,21.2406277 C101.388688,20.8213595 101.389062,20.1388357 101.83997,19.7176522 C102.294021,19.2935322 103.020858,19.2954546 103.470426,19.7153873 L108.098781,23.9915971 C108.098781,23.9915971 108.571429,24.4919084 108.571429,24.9634721 Z" id="next_icon"></path>
            </g>
        </g>
    </g>
</svg>