<?xml version="1.0" encoding="UTF-8" standalone="no"?>
<svg width="28px" height="24px" viewBox="0 0 28 24" version="1.1" xmlns="http://www.w3.org/2000/svg" xmlns:xlink="http://www.w3.org/1999/xlink">
    <!-- Generator: Sketch 3.8.3 (29802) - http://www.bohemiancoding.com/sketch -->
    <title>order_icon</title>
    <desc>Created with Sketch.</desc>
    <defs></defs>
    <g id="Page-1" stroke="none" stroke-width="1" fill="none" fill-rule="evenodd">
        <g id="01" transform="translate(-624.000000, -440.000000)" fill="#FFFFFF">
            <g id="Group-3" transform="translate(604.000000, 421.000000)">
                <g id="order_icon" transform="translate(20.173913, 19.225352)">
                    <path d="M24.0975191,13.8190174 L24.0975191,6.16017773 C24.6512746,7.97372569 25.1299832,10.4764219 25.2198122,13.8190174 L24.0975191,13.8190174 Z M23.764356,0.549513749 C23.4380155,0.225342052 22.9502103,0.12786385 22.5249442,0.303551308 C22.1008152,0.479238766 21.8233689,0.892954393 21.8233689,1.35087525 L21.8233689,22.8867572 L24.0975191,22.8867572 L24.0975191,16.0859524 L26.3716692,16.0859524 C26.9993347,16.0859524 27.5087443,15.578159 27.5087443,14.9524849 C27.5087443,4.40330315 23.9178612,0.702531858 23.764356,0.549513749 L23.764356,0.549513749 Z" id="Fill-816"></path>
                    <path d="M9.31554277,4.75127767 L9.31554277,0.21740778 L7.04139257,0.21740778 L7.04139257,4.75127767 C7.04139257,5.58664319 6.58087715,6.30979544 5.90431747,6.70424212 L5.90431747,0.21740778 L3.63016727,0.21740778 L3.63016727,6.70424212 C2.95360759,6.30979544 2.49309217,5.58664319 2.49309217,4.75127767 L2.49309217,0.21740778 L0.218941976,0.21740778 L0.218941976,4.75127767 C0.218941976,6.85726023 1.6743981,8.61640174 3.63016727,9.12419517 L3.63016727,22.8867572 L5.90431747,22.8867572 L5.90431747,9.12419517 C7.86008664,8.61640174 9.31554277,6.85726023 9.31554277,4.75127767" id="Fill-817"></path>
                    <path d="M13.8638432,19.4863548 C11.3554555,19.4863548 9.31554277,17.4529142 9.31554277,14.9524849 C9.31554277,12.4531891 11.3554555,10.418615 13.8638432,10.418615 C16.3722308,10.418615 18.4121436,12.4531891 18.4121436,14.9524849 C18.4121436,17.4529142 16.3722308,19.4863548 13.8638432,19.4863548 M13.8638432,8.15168008 C10.1012617,8.15168008 7.04139257,11.201841 7.04139257,14.9524849 C7.04139257,18.7031288 10.1012617,21.7532897 13.8638432,21.7532897 C17.6264247,21.7532897 20.6862938,18.7031288 20.6862938,14.9524849 C20.6862938,11.201841 17.6264247,8.15168008 13.8638432,8.15168008" id="Fill-818"></path>
                    <path d="M15.5694558,12.68555 C14.6279576,12.68555 13.8638432,13.4472401 13.8638432,14.3857512 C13.8638432,13.4472401 13.0997287,12.68555 12.1582305,12.68555 C11.2167323,12.68555 10.4526179,13.4472401 10.4526179,14.3857512 C10.4526179,16.0859524 13.8638432,18.3528873 13.8638432,18.3528873 C13.8638432,18.3528873 17.2750685,16.0859524 17.2750685,14.3857512 C17.2750685,13.4472401 16.510954,12.68555 15.5694558,12.68555" id="Fill-819"></path>
                </g>
            </g>
        </g>
    </g>
</svg>