<?xml version="1.0" encoding="UTF-8" standalone="no"?>
<svg width="24px" height="24px" viewBox="0 0 24 24" version="1.1" xmlns="http://www.w3.org/2000/svg" xmlns:xlink="http://www.w3.org/1999/xlink">
    <!-- Generator: Sketch 3.8.3 (29802) - http://www.bohemiancoding.com/sketch -->
    <title>feedme_logo</title>
    <desc>Created with Sketch.</desc>
    <defs></defs>
    <g id="Symbols" stroke="none" stroke-width="1" fill="none" fill-rule="evenodd">
        <g id="HEADER_01-Copy" transform="translate(-32.000000, -37.000000)" fill="#E45050">
            <g id="HEADER_01">
                <g id="feedme_logo" transform="translate(32.000000, 37.000000)">
                    <path d="M19.2,9.6 C18.5376,9.6 18,10.1376 18,10.8 L18,18 L16.8,18 L16.8,14.4 L14.4,14.4 L14.4,18 L13.2,18 L13.2,13.2 L10.8,13.2 L10.8,18 L9.6,18 L9.6,14.4 L7.2,14.4 L7.2,18 L6,18 L6,10.8 C6,10.1376 5.4624,9.6 4.8,9.6 C3.4764,9.6 2.4,8.5224 2.4,7.2 C2.4,5.8752 3.4764,4.8 4.8,4.8 C5.4552,4.8 6.0696,5.064 6.528,5.5452 C6.8268,5.856 7.2684,5.9832 7.6872,5.88 C8.1048,5.7744 8.436,5.454 8.5524,5.0388 C8.9856,3.4848 10.404,2.4 12,2.4 C13.5972,2.4 15.0144,3.4848 15.4488,5.0388 C15.564,5.454 15.8952,5.7744 16.3128,5.88 C16.7328,5.9832 17.1732,5.8572 17.472,5.5452 C17.9304,5.064 18.5448,4.8 19.2,4.8 C20.5236,4.8 21.6,5.8752 21.6,7.2 C21.6,8.5224 20.5236,9.6 19.2,9.6 L19.2,9.6 Z M6,20.4 L18,20.4 L18,21.6 L6,21.6 L6,20.4 Z M19.2,2.4 C18.4596,2.4 17.748,2.5668 17.1036,2.8824 C16.0344,1.1292 14.1108,0 12,0 C9.8892,0 7.9656,1.1292 6.8964,2.8824 C6.252,2.5668 5.5404,2.4 4.8,2.4 C2.154,2.4 0,4.5528 0,7.2 C0,9.432 1.5324,11.3136 3.6,11.8488 L3.6,22.8 C3.6,23.4624 4.1376,24 4.8,24 L19.2,24 C19.8624,24 20.4,23.4624 20.4,22.8 L20.4,11.8488 C22.4676,11.3136 24,9.432 24,7.2 C24,4.5528 21.8472,2.4 19.2,2.4 L19.2,2.4 Z" id="Fill-831"></path>
                </g>
            </g>
        </g>
    </g>
</svg>