<?xml version="1.0" encoding="UTF-8" standalone="no"?>
<svg width="41px" height="41px" viewBox="0 0 41 41" version="1.1" xmlns="http://www.w3.org/2000/svg" xmlns:xlink="http://www.w3.org/1999/xlink">
    <!-- Generator: Sketch 3.8.3 (29802) - http://www.bohemiancoding.com/sketch -->
    <title>feedme_logo_white</title>
    <desc>Created with Sketch.</desc>
    <defs></defs>
    <g id="Page-1" stroke="none" stroke-width="1" fill="none" fill-rule="evenodd">
        <g id="01" transform="translate(-700.000000, -142.000000)" fill="#FFFFFF">
            <g id="feedme_logo_white" transform="translate(700.000000, 142.000000)">
                <path d="M32.8,16.4 C31.6684,16.4 30.75,17.3184 30.75,18.45 L30.75,30.75 L28.7,30.75 L28.7,24.6 L24.6,24.6 L24.6,30.75 L22.55,30.75 L22.55,22.55 L18.45,22.55 L18.45,30.75 L16.4,30.75 L16.4,24.6 L12.3,24.6 L12.3,30.75 L10.25,30.75 L10.25,18.45 C10.25,17.3184 9.3316,16.4 8.2,16.4 C5.93885,16.4 4.1,14.5591 4.1,12.3 C4.1,10.0368 5.93885,8.2 8.2,8.2 C9.3193,8.2 10.3689,8.651 11.152,9.47305 C11.66245,10.004 12.41685,10.2213 13.1323,10.045 C13.8457,9.8646 14.4115,9.31725 14.61035,8.60795 C15.3504,5.9532 17.7735,4.1 20.5,4.1 C23.22855,4.1 25.6496,5.9532 26.3917,8.60795 C26.5885,9.31725 27.1543,9.8646 27.8677,10.045 C28.5852,10.2213 29.33755,10.00605 29.848,9.47305 C30.6311,8.651 31.6807,8.2 32.8,8.2 C35.06115,8.2 36.9,10.0368 36.9,12.3 C36.9,14.5591 35.06115,16.4 32.8,16.4 L32.8,16.4 Z M10.25,34.85 L30.75,34.85 L30.75,36.9 L10.25,36.9 L10.25,34.85 Z M32.8,4.1 C31.53515,4.1 30.3195,4.38495 29.21865,4.9241 C27.3921,1.92905 24.10595,0 20.5,0 C16.89405,0 13.6079,1.92905 11.78135,4.9241 C10.6805,4.38495 9.46485,4.1 8.2,4.1 C3.67975,4.1 0,7.7777 0,12.3 C0,16.113 2.61785,19.3274 6.15,20.2417 L6.15,38.95 C6.15,40.0816 7.0684,41 8.2,41 L32.8,41 C33.9316,41 34.85,40.0816 34.85,38.95 L34.85,20.2417 C38.38215,19.3274 41,16.113 41,12.3 C41,7.7777 37.3223,4.1 32.8,4.1 L32.8,4.1 Z" id="Fill-831"></path>
            </g>
        </g>
    </g>
</svg>